<svg width="24" height="24" viewBox="0 0 24 24" fill="none" xmlns="http://www.w3.org/2000/svg">
<path d="M13.5566 19.1035C14.3273 19.1035 14.8084 19.9378 14.4219 20.6045C13.921 21.4681 12.9983 22 12 22C11.0017 22 10.079 21.4681 9.57813 20.6045C9.21092 19.9712 9.62687 19.1863 10.3301 19.1094L10.4434 19.1035H13.5566ZM12 2C15.9511 2 19.1688 5.13984 19.2959 9.06055L19.2998 9.30078V13.8018C19.2998 14.6915 19.9833 15.4217 20.8535 15.4961L21.1328 15.5098C22.2441 15.629 22.2873 17.2404 21.2617 17.4746L21.1328 17.4951L21 17.502H3L2.86719 17.4951C1.71142 17.3711 1.71142 15.6338 2.86719 15.5098L3.14649 15.4961C3.96833 15.4258 4.62312 14.7704 4.69336 13.9482L4.7002 13.8018V9.30078C4.70038 5.26868 7.9684 2 12 2ZM12 4C9.14611 4 6.81868 6.25657 6.70411 9.08301L6.7002 9.30078V13.8018C6.7002 14.3103 6.59771 14.7952 6.41211 15.2363L6.3125 15.4531L6.28516 15.502H17.7139L17.6875 15.4531C17.5037 15.085 17.3792 14.6813 17.3272 14.2559L17.3047 13.998L17.2998 13.8018V9.30078C17.2996 6.37317 14.927 4 12 4Z" fill="#0A1629"/>
</svg>
