<svg width="24" height="24" viewBox="0 0 24 24" fill="none" xmlns="http://www.w3.org/2000/svg">
<path d="M11.5 3C16.1944 3 20 6.80558 20 11.5C20 13.489 19.3144 15.3166 18.1699 16.7646L18.5664 17.1514L21.707 20.293C22.0976 20.6835 22.0976 21.3165 21.707 21.707C21.3465 22.0675 20.779 22.0951 20.3867 21.79L20.293 21.707L17.1602 18.5742L16.7549 18.1777C15.3084 19.3176 13.4845 20 11.5 20C6.80558 20 3 16.1944 3 11.5C3 6.80558 6.80558 3 11.5 3ZM11.5 5C7.91015 5 5 7.91015 5 11.5C5 15.0899 7.91015 18 11.5 18C15.0899 18 18 15.0899 18 11.5C18 7.91015 15.0899 5 11.5 5Z" fill="#0A1629"/>
</svg>
