<svg width="168" height="146" viewBox="0 0 168 146" fill="none" xmlns="http://www.w3.org/2000/svg">
<rect opacity="0.100655" y="48" width="168" height="98" rx="24" fill="#3F8CFF"/>
<path fill-rule="evenodd" clip-rule="evenodd" d="M21 118.099V94.5142C21 90.3652 29.4076 87 39.7737 87H82.2263C92.596 87 101 90.3652 101 94.5142V119L21 118.099" fill="#B0D4FF"/>
<path fill-rule="evenodd" clip-rule="evenodd" d="M80.4004 3.30169C75.3827 0.655218 67.7451 0.297428 66.5062 0.130241C51.661 -1.87236 42.7262 19.7827 42.2015 26.3458C41.2322 38.4404 34.859 40.2842 25.8914 47.8571C7.90514 63.0467 13.1778 80.6947 23.0127 87.2505C28.9158 91.1869 39.3155 87.2505 39.3155 87.2505C39.4612 87.3529 67.7597 71.3695 81.7085 63.6576C102.621 60.6724 93.1868 10.0441 80.4004 3.30169" fill="#233862"/>
<path fill-rule="evenodd" clip-rule="evenodd" d="M58.6436 57.1725C54.2575 55.2607 50.9385 48.1557 51.0009 48.1521C52.9959 48.0617 55.9326 45.2755 57.6196 34L58 34.2683L72 40.4327C72 40.4327 70.9658 44.9465 70.2947 49.2435C69.7336 52.8538 69.4292 56.3124 70.2103 56.8219C70.2727 56.8617 63.3011 59.2035 58.6436 57.1725Z" fill="#FFB27D"/>
<path fill-rule="evenodd" clip-rule="evenodd" d="M72 40.1091C72 40.1091 70.9859 44.664 70.3278 49C62.2867 47.534 59.1292 39.409 58 35L72 40.1091" fill="#ED975D"/>
<path fill-rule="evenodd" clip-rule="evenodd" d="M74.9236 43.9951C74.9236 43.9951 55.2923 41.3976 57.1202 29.3896C58.948 17.3817 57.6472 8.95794 70.2581 10.1043C82.869 11.2543 84.6011 16.1954 84.9807 20.3492C85.3603 24.503 80.0756 44.3579 74.9236 43.9951" fill="#FFB27D"/>
<path fill-rule="evenodd" clip-rule="evenodd" d="M84 14.9706C84 14.9706 71.7764 25.9412 63.4636 26.8262C55.1473 27.7111 52 24.9293 52 24.9293C52 24.9293 56.9002 20.6911 59.8503 13.8504C60.7178 11.834 62.5567 10.4524 64.6717 10.262C70.6078 9.728 81.86 9.48529 84 14.9706" fill="#233862"/>
<path fill-rule="evenodd" clip-rule="evenodd" d="M76 13.3415C76 13.3415 80.1397 17.3952 81.447 20.4015C82.7034 23.3049 83.0811 30.2436 82.0788 33C82.0788 33 88.5353 20.2986 84.8786 14.128C81.0039 7.58253 76 13.3415 76 13.3415" fill="#233862"/>
<path fill-rule="evenodd" clip-rule="evenodd" d="M82.5477 120.157C81.511 121.043 78.6046 121.572 74.7816 121.821C62.7523 122.613 41.6109 120.651 40.807 118.451C38.0316 110.839 39.9922 108.473 37.6787 96.8174C37.435 95.5788 37.1368 94.2357 36.7876 92.7738C34.856 84.7694 32.9791 82.0473 39.8249 69.1855C46.0342 57.5372 52.0124 47.6666 52.5944 48.0086C68.9743 57.6334 70.1775 50.602 70.1775 50.602C70.1775 50.602 87.2838 66.8198 86.9964 85.7596C86.4108 124.586 86.8364 116.47 82.5477 120.157Z" fill="white"/>
<path fill-rule="evenodd" clip-rule="evenodd" d="M41.9824 118.463C39.1804 110.732 40.3356 107.314 38 95.4772L44.3963 80C44.3963 80 43.4305 98.2867 48.8435 103.095C54.2564 107.904 71.0167 112.379 73.6497 116.398C74.9203 118.329 75.7576 120.259 76 121.813C63.8558 122.618 42.7939 120.697 41.9824 118.463Z" fill="#EBF3FF"/>
<path fill-rule="evenodd" clip-rule="evenodd" d="M61 114.015C61 114.015 72.861 111.118 74.7736 112.271C76.6861 113.429 81.3622 117.634 81.9512 119.099C82.5366 120.564 77.6897 117.986 76.1116 117.523C75.0935 117.223 72.4028 118.245 71.0756 118.732C65.476 120.783 62.0472 119.73 62.0472 119.73L61 114.015" fill="#FFB27D"/>
<path fill-rule="evenodd" clip-rule="evenodd" d="M31.885 55.9893C24.1671 66.696 8.86161 112.321 17.635 118.41C27.5145 125.261 62.5936 120.201 62.5936 120.201C62.5936 120.201 63.7612 114.774 62.1381 112.145C60.5114 109.519 34.119 105.279 32.9008 104.067C31.6825 102.855 48.1268 80.4309 48.1268 76.7948C48.1268 73.1588 52.5944 48 52.5944 48C52.5944 48 37.3652 48.3827 31.885 55.9893Z" fill="white"/>
<path fill-rule="evenodd" clip-rule="evenodd" d="M75 116C75 116 77.6763 119.301 78.5541 119.694C79.4318 120.087 80 119.989 80 119.989L78.1975 116.887L75 116" fill="#FFB27D"/>
<path fill-rule="evenodd" clip-rule="evenodd" d="M74 113L82 116.533C82 116.533 81.6578 117.038 80.6754 116.998C79.689 116.957 77.2048 116.13 77.2048 116.13L74 113" fill="#FFB27D"/>
<path fill-rule="evenodd" clip-rule="evenodd" d="M79 124H135.886L153 81H96.2008L79 124" fill="#FDC748"/>
<path fill-rule="evenodd" clip-rule="evenodd" d="M136 122H61V124H135.335L136 122" fill="#E6B137"/>
<path fill-rule="evenodd" clip-rule="evenodd" d="M120.882 102.498C121.341 101.119 120.42 100 118.825 100C117.235 100 115.574 101.119 115.116 102.498C114.662 103.878 115.582 105 117.173 105C118.768 105 120.428 103.878 120.882 102.498" fill="white"/>
</svg>
