<svg width="24" height="24" viewBox="0 0 24 24" fill="none" xmlns="http://www.w3.org/2000/svg">
<path d="M8.58288 4C11.0906 4.00008 13.3025 5.63865 14.0272 8.0332C14.7518 10.4278 13.8182 13.0135 11.7294 14.3975C13.4633 15.0355 14.9624 16.1836 16.0272 17.6904C16.1902 17.9213 16.2103 18.224 16.08 18.4746C15.9496 18.7251 15.6901 18.8827 15.4071 18.8828H1.75769C1.47477 18.8826 1.21517 18.7251 1.08484 18.4746C0.954637 18.224 0.97566 17.9222 1.13855 17.6914C2.2034 16.1843 3.70213 15.0356 5.4364 14.3975C3.34753 13.0135 2.41391 10.4278 3.13855 8.0332C3.86324 5.63859 6.07513 4 8.58288 4ZM14.7665 4.21387C17.4603 3.45918 20.3046 4.77148 21.4725 7.30762C22.6404 9.84379 21.7851 12.8509 19.4559 14.3975C21.1899 15.0355 22.689 16.1836 23.7538 17.6904C23.9168 17.9213 23.9369 18.224 23.8065 18.4746C23.6761 18.7251 23.4167 18.8828 23.1337 18.8828H18.8954C18.6008 18.8828 18.3325 18.7125 18.2079 18.4463C17.6253 17.2005 16.8048 16.0796 15.7928 15.1465C15.778 15.1327 15.7644 15.1181 15.7509 15.1035C15.4862 14.8625 15.2092 14.6343 14.9218 14.4209C14.6069 14.1872 14.5232 13.7527 14.7284 13.4189C16.262 10.921 16.1177 7.7431 14.3641 5.39355C14.2151 5.19385 14.1743 4.93388 14.2548 4.69824C14.3353 4.46276 14.5264 4.28129 14.7665 4.21387Z" fill="#7D8592"/>
</svg>
