<svg width="24" height="24" viewBox="0 0 24 24" fill="none" xmlns="http://www.w3.org/2000/svg">
<path d="M19.5059 15.1308C19.9859 14.8581 20.5962 15.026 20.8691 15.5058C21.1224 15.9515 20.9962 16.5096 20.5928 16.8056L20.4941 16.8691L13.8994 20.6172C13.0697 21.0928 12.057 21.125 11.1992 20.7129L11.0186 20.6181L4.50098 16.8672C4.02239 16.5916 3.85827 15.9796 4.13379 15.501C4.3897 15.0568 4.93484 14.8831 5.39453 15.081L5.49902 15.1338L12.0127 18.8828C12.253 19.0198 12.5463 19.0371 12.8018 18.9326L12.9082 18.8799L19.5059 15.1308ZM19.6035 11.4707C20.0836 11.1982 20.694 11.3666 20.9668 11.8467C21.2198 12.2925 21.0932 12.8506 20.6895 13.1465L20.5908 13.2099L13.9971 16.957C13.1673 17.4328 12.1537 17.4659 11.2959 17.0537L11.1152 16.958L4.59863 13.207C4.12008 12.9315 3.95516 12.3204 4.23047 11.8418C4.48623 11.3975 5.03147 11.2231 5.49121 11.4209L5.5957 11.4736L12.1094 15.2226C12.3497 15.3597 12.643 15.377 12.8984 15.2724L13.0049 15.2207L19.6035 11.4707ZM10.958 2.6367C11.5979 2.24606 12.4021 2.24606 13.042 2.6367L19.1582 6.3701C20.446 7.15634 20.4327 9.03105 19.1338 9.79881L13.04 13.4004C12.4138 13.7702 11.6358 13.771 11.0088 13.4023L4.87695 9.79686C3.57492 9.03101 3.55949 7.15354 4.84863 6.3662L10.958 2.6367Z" fill="#3F8CFF"/>
</svg>
