<svg width="24" height="24" viewBox="0 0 24 24" fill="none" xmlns="http://www.w3.org/2000/svg">
<path fill-rule="evenodd" clip-rule="evenodd" d="M20.1064 18.6958C20.5835 18.2443 20.5826 17.4845 20.1046 17.034L14.232 11.5L20.1046 5.96597C20.5826 5.51549 20.5835 4.75571 20.1064 4.30419L20.041 4.24227C19.601 3.82583 18.9125 3.82508 18.4716 4.24056L12.5 9.86786L6.52845 4.24056C6.08755 3.82508 5.39905 3.82583 4.95906 4.24227L4.89363 4.30419C4.41658 4.75571 4.4174 5.51549 4.89544 5.96597L10.768 11.5L4.89544 17.034C4.4174 17.4845 4.41658 18.2443 4.89364 18.6958L4.95906 18.7577C5.39905 19.1742 6.08756 19.1749 6.52845 18.7594L12.5 13.1321L18.4716 18.7594C18.9125 19.1749 19.601 19.1742 20.041 18.7577L20.1064 18.6958Z" fill="#0A1629"/>
</svg>
